<svg width="31" height="31" viewBox="0 0 31 31" fill="none" xmlns="http://www.w3.org/2000/svg">
<g clip-path="url(#clip0)">
<path d="M23.2461 23.25H7.75258L7.75 22.4453C7.75 20.8191 7.87917 19.88 9.80117 19.4357C11.9763 18.9332 14.1205 18.485 13.0885 16.5824C10.0324 10.9469 12.2179 7.75 15.4987 7.75C18.7162 7.75 20.9573 10.828 17.909 16.5837C16.9079 18.4747 18.9759 18.9242 21.1962 19.437C23.1208 19.8813 23.2487 20.8217 23.2487 22.4505L23.2461 23.25ZM29.4603 20.3903C27.7941 20.0053 26.2441 19.6682 26.9945 18.25C29.2795 13.9332 27.6003 11.625 25.1862 11.625C23.5522 11.625 22.2825 12.6803 22.2825 14.6268C22.2825 19.6682 25.212 16.9131 25.1836 23.25H30.9974L31 22.652C31 21.43 30.9044 20.7235 29.4603 20.3903ZM0.00258333 23.25H5.81637C5.78925 16.9131 8.71746 19.6695 8.71746 14.6268C8.71746 12.6803 7.44775 11.625 5.81379 11.625C3.39967 11.625 1.7205 13.9332 4.00675 18.25C4.75721 19.6695 3.20721 20.0053 1.54096 20.3903C0.0955833 20.7235 0 21.43 0 22.652L0.00258333 23.25Z" fill="#C2D1D4"/>
</g>
<defs>
<clipPath id="clip0">
</clipPath>
</defs>
</svg>
