<svg width="257" height="70" viewBox="0 0 257 70" fill="none" xmlns="http://www.w3.org/2000/svg">
<path d="M17.5977 21.4238C17.3372 21.4238 16.8327 21.4889 16.084 21.6191C15.3678 21.7168 14.5215 21.847 13.5449 22.0098C12.5684 22.1725 11.543 22.3678 10.4688 22.5957C9.39453 22.791 8.38542 22.9701 7.44141 23.1328C6.4974 23.2956 5.68359 23.4421 5 23.5723C4.28385 23.6699 3.81185 23.7188 3.58398 23.7188C1.40299 23.7188 0.3125 22.5794 0.3125 20.3008C0.3125 19.6823 0.377604 19.0801 0.507812 18.4941C0.605469 17.8757 0.800781 17.3223 1.09375 16.834C1.38672 16.3132 1.77734 15.8737 2.26562 15.5156C2.75391 15.1576 3.3724 14.9134 4.12109 14.7832C7.92969 14.1973 11.722 13.5788 15.498 12.9277C19.2741 12.2767 23.0827 11.5931 26.9238 10.877C27.7702 10.7142 28.5352 10.5677 29.2188 10.4375C29.9023 10.2747 30.6673 10.0632 31.5137 9.80273C32.4251 9.54232 33.418 9.29818 34.4922 9.07031C35.5664 8.8099 36.6406 8.58203 37.7148 8.38672C38.8216 8.19141 39.8796 8.02865 40.8887 7.89844C41.9303 7.76823 42.8743 7.70312 43.7207 7.70312C44.7624 7.70312 45.5436 8.04492 46.0645 8.72852C46.6178 9.37956 46.8945 10.3073 46.8945 11.5117C46.8945 12.1302 46.8457 12.7324 46.748 13.3184C46.6504 13.8717 46.4714 14.3763 46.2109 14.832C45.9505 15.2878 45.5924 15.6621 45.1367 15.9551C44.681 16.248 44.0951 16.4271 43.3789 16.4922C41.5234 16.7526 39.5378 17.0781 37.4219 17.4688C35.306 17.8268 33.4668 18.2337 31.9043 18.6895C31.2533 18.8848 30.765 19.2103 30.4395 19.666C30.1139 20.0892 29.9023 20.6263 29.8047 21.2773C29.707 21.8958 29.6419 22.5306 29.6094 23.1816C29.6094 23.8001 29.6094 24.4023 29.6094 24.9883C29.6094 26.3555 29.6582 27.7227 29.7559 29.0898C29.8861 30.457 30 31.8242 30.0977 33.1914C30.3906 37.8789 30.8301 42.5176 31.416 47.1074C32.0345 51.6973 32.7018 56.3359 33.418 61.0234C33.4831 61.1862 33.5156 61.349 33.5156 61.5117C33.5156 61.6745 33.5156 61.8372 33.5156 62C33.5156 63.7904 32.5065 65.0599 30.4883 65.8086L28.291 66.4922C27.7051 66.6875 27.1354 66.7852 26.582 66.7852C25.7357 66.7852 25.0521 66.5085 24.5312 65.9551C24.0104 65.4342 23.6686 64.653 23.5059 63.6113C22.5944 58.0124 21.7969 52.446 21.1133 46.9121C20.4297 41.3457 19.9902 35.7467 19.7949 30.1152C19.7298 29.2038 19.681 28.2109 19.6484 27.1367C19.6159 26.0625 19.5996 24.9557 19.5996 23.8164C19.5996 22.2214 18.9323 21.4238 17.5977 21.4238ZM54.8535 12.1953C53.9095 12.1953 53.0143 12.0651 52.168 11.8047C51.3542 11.5117 50.638 11.1211 50.0195 10.6328C49.4336 10.112 48.9616 9.50977 48.6035 8.82617C48.2454 8.14258 48.0664 7.39388 48.0664 6.58008C48.0664 5.21289 48.6035 4.10612 49.6777 3.25977C50.7845 2.41341 52.2493 1.99023 54.0723 1.99023C54.9186 1.99023 55.7324 2.15299 56.5137 2.47852C57.2949 2.77148 57.9785 3.17839 58.5645 3.69922C59.1829 4.22005 59.6712 4.83854 60.0293 5.55469C60.3874 6.23828 60.5664 6.95443 60.5664 7.70312C60.5664 9.10286 60.0456 10.2096 59.0039 11.0234C57.9948 11.8047 56.6113 12.1953 54.8535 12.1953ZM48.1641 27.0879C48.1641 25.9486 48.6523 25.0208 49.6289 24.3047C50.638 23.556 51.9564 23.1816 53.584 23.1816C56.5137 23.1816 58.0762 24.1908 58.2715 26.209C58.4017 27.6087 58.5319 29.1875 58.6621 30.9453C58.8249 32.7031 58.9714 34.5749 59.1016 36.5605C59.2643 38.5137 59.3945 40.5482 59.4922 42.6641C59.6224 44.7474 59.7363 46.8145 59.834 48.8652C59.9316 50.8835 60.013 52.8366 60.0781 54.7246C60.1432 56.6126 60.1758 58.3379 60.1758 59.9004C60.1758 61.528 59.5898 62.7487 58.418 63.5625C57.2786 64.3763 55.6022 64.7832 53.3887 64.7832C52.3796 64.7832 51.582 64.5391 50.9961 64.0508C50.4427 63.5951 50.166 62.9115 50.166 62C50.166 57.5078 50.0521 53.3086 49.8242 49.4023C49.6289 45.4635 49.401 41.9642 49.1406 38.9043C48.9128 35.8444 48.6849 33.3053 48.457 31.2871C48.2617 29.2363 48.1641 27.8366 48.1641 27.0879ZM70.0391 22.5957C70.0391 22.1074 70.2507 21.6354 70.6738 21.1797C71.097 20.6914 71.6504 20.2682 72.334 19.9102C73.0176 19.5195 73.7826 19.2103 74.6289 18.9824C75.5078 18.722 76.3867 18.5918 77.2656 18.5918C77.7539 18.5918 78.1608 18.722 78.4863 18.9824C78.8444 19.2428 79.1536 19.7474 79.4141 20.4961C79.6745 21.2122 79.9023 22.2376 80.0977 23.5723C80.3255 24.8743 80.5371 26.5833 80.7324 28.6992C80.8626 29.3503 80.9766 29.8548 81.0742 30.2129C81.2044 30.5384 81.3672 30.7012 81.5625 30.7012C81.8555 30.7012 82.1484 30.1966 82.4414 29.1875C84.8177 22.319 88.252 18.8848 92.7441 18.8848C94.8275 18.8848 96.7155 19.5358 98.4082 20.8379C100.133 22.14 101.729 24.2721 103.193 27.2344C104.691 30.1641 106.107 34.0378 107.441 38.8555C108.776 43.6406 110.111 49.5488 111.445 56.5801C111.51 56.9382 111.559 57.2637 111.592 57.5566C111.624 57.8496 111.641 58.1263 111.641 58.3867C111.641 59.1354 111.462 59.7865 111.104 60.3398C110.778 60.8607 110.339 61.3001 109.785 61.6582C109.232 61.9837 108.613 62.2279 107.93 62.3906C107.246 62.5859 106.562 62.6836 105.879 62.6836C104.512 62.6836 103.519 62.5371 102.9 62.2441C102.314 61.9512 101.94 61.3978 101.777 60.584C100.833 55.6361 99.9056 51.2415 98.9941 47.4004C98.1152 43.5592 97.2363 40.3366 96.3574 37.7324C95.5111 35.0957 94.6647 33.0938 93.8184 31.7266C92.972 30.3594 92.1257 29.6758 91.2793 29.6758C90.4329 29.6758 89.6354 30.2129 88.8867 31.2871C88.1706 32.3288 87.4707 33.9727 86.7871 36.2188C86.1035 38.4648 85.4362 41.3132 84.7852 44.7637C84.1667 48.2142 83.5645 52.332 82.9785 57.1172C82.8158 58.4193 82.1647 59.4609 81.0254 60.2422C79.8861 61.0234 78.4375 61.4141 76.6797 61.4141C75.5078 61.4141 74.6126 61.1699 73.9941 60.6816C73.3757 60.1934 73.0339 59.526 72.9688 58.6797C72.6758 51.9089 72.3503 46.3424 71.9922 41.9805C71.6667 37.5859 71.3574 34.0703 71.0645 31.4336C70.7715 28.7643 70.5273 26.7786 70.332 25.4766C70.1367 24.1745 70.0391 23.2142 70.0391 22.5957ZM119.697 61.0234C119.697 58.1914 119.616 55.1152 119.453 51.7949C119.29 48.4746 119.079 45.1217 118.818 41.7363C118.59 38.3184 118.33 34.9818 118.037 31.7266C117.777 28.4714 117.516 25.4928 117.256 22.791C117.028 20.0892 116.833 17.7617 116.67 15.8086C116.507 13.8555 116.426 12.4883 116.426 11.707C116.426 10.4049 116.914 9.41211 117.891 8.72852C118.867 8.04492 120.283 7.70312 122.139 7.70312C122.952 7.70312 123.636 7.78451 124.189 7.94727C124.775 8.11003 125.247 8.38672 125.605 8.77734C125.964 9.16797 126.24 9.6888 126.436 10.3398C126.663 10.9583 126.826 11.7396 126.924 12.6836C127.054 13.9857 127.168 15.3854 127.266 16.8828C127.363 18.3477 127.461 20.0241 127.559 21.9121C127.689 23.8001 127.819 25.9323 127.949 28.3086C128.079 30.6849 128.242 33.4193 128.438 36.5117C128.438 36.9674 128.519 37.293 128.682 37.4883C128.844 37.6836 129.023 37.7812 129.219 37.7812C129.577 37.7812 129.902 37.4883 130.195 36.9023C132.962 31.2708 135.859 26.974 138.887 24.0117C141.914 21.0169 144.86 19.5195 147.725 19.5195C149.417 19.5195 150.752 20.0241 151.729 21.0332C152.705 22.0423 153.193 23.3932 153.193 25.0859C153.193 26.9089 152.786 28.6016 151.973 30.1641C151.191 31.694 150.199 33.1426 148.994 34.5098C147.822 35.877 146.536 37.1628 145.137 38.3672C143.77 39.5716 142.484 40.7435 141.279 41.8828C140.107 43.0221 139.115 44.1452 138.301 45.252C137.52 46.3262 137.129 47.4167 137.129 48.5234C137.129 49.5326 137.715 50.5742 138.887 51.6484C140.091 52.6901 141.816 53.7318 144.062 54.7734C146.309 55.7826 149.059 56.7754 152.314 57.752C155.57 58.696 159.264 59.6074 163.398 60.4863C164.049 60.6491 164.505 60.9095 164.766 61.2676C165.059 61.6257 165.205 62.0977 165.205 62.6836C165.205 63.3997 165.042 64.1322 164.717 64.8809C164.391 65.6621 163.984 66.362 163.496 66.9805C163.008 67.6315 162.454 68.1523 161.836 68.543C161.25 68.9661 160.68 69.1777 160.127 69.1777C159.02 69.1777 157.702 69.0312 156.172 68.7383C154.642 68.4453 152.982 68.0384 151.191 67.5176C149.434 67.0293 147.611 66.4434 145.723 65.7598C143.835 65.1087 141.995 64.3926 140.205 63.6113C138.447 62.8626 136.771 62.0814 135.176 61.2676C133.613 60.4212 132.262 59.5911 131.123 58.7773C130.765 58.582 130.472 58.4193 130.244 58.2891C130.049 58.1589 129.87 58.0938 129.707 58.0938C129.512 58.0938 129.398 58.1751 129.365 58.3379C129.333 58.4681 129.316 58.7611 129.316 59.2168C129.316 60.3561 129.219 61.2839 129.023 62C128.861 62.7161 128.568 63.2695 128.145 63.6602C127.721 64.0833 127.135 64.3763 126.387 64.5391C125.638 64.7018 124.71 64.7832 123.604 64.7832C122.139 64.7832 121.113 64.5065 120.527 63.9531C119.974 63.3997 119.697 62.4232 119.697 61.0234ZM202.949 51.3066C203.893 50.4928 204.821 50.0859 205.732 50.0859C206.253 50.0859 206.725 50.2161 207.148 50.4766C207.572 50.737 208.044 51.1439 208.564 51.6973C209.053 52.446 209.395 53.0645 209.59 53.5527C209.818 54.0085 209.932 54.4642 209.932 54.9199C209.932 55.8965 209.443 56.8242 208.467 57.7031C206.904 59.0052 205.212 60.1771 203.389 61.2188C201.566 62.2279 199.661 63.0905 197.676 63.8066C195.69 64.5228 193.639 65.0599 191.523 65.418C189.408 65.8086 187.308 66.0039 185.225 66.0039C182.588 66.0039 180.114 65.6621 177.803 64.9785C175.492 64.3275 173.424 63.3835 171.602 62.1465C169.811 60.9095 168.298 59.4284 167.061 57.7031C165.824 55.9453 164.945 53.9759 164.424 51.7949C164.131 50.8835 163.854 50.2975 163.594 50.0371C163.366 49.7441 162.975 49.5977 162.422 49.5977C161.217 49.5977 160.29 49.3047 159.639 48.7188C158.988 48.1328 158.662 47.2865 158.662 46.1797C158.662 45.724 158.695 45.431 158.76 45.3008L158.857 44.3242C159.02 43.1523 159.329 42.306 159.785 41.7852C160.273 41.2643 161.022 41.0039 162.031 41.0039H162.764C164.131 41.0039 165.091 40.3691 165.645 39.0996C166.654 36.8535 167.939 34.8027 169.502 32.9473C171.064 31.0918 172.822 29.513 174.775 28.2109C176.729 26.8763 178.812 25.8509 181.025 25.1348C183.271 24.3861 185.55 24.0117 187.861 24.0117C190.27 24.0117 192.516 24.3698 194.6 25.0859C196.715 25.7695 198.555 26.7298 200.117 27.9668C201.68 29.2038 202.9 30.6523 203.779 32.3125C204.691 33.9727 205.146 35.763 205.146 37.6836C205.146 39.0182 204.886 40.2389 204.365 41.3457C203.844 42.4525 203.096 43.429 202.119 44.2754C201.143 45.0892 199.954 45.7565 198.555 46.2773C197.188 46.7982 195.625 47.14 193.867 47.3027L176.924 49.0117C176.273 49.0117 175.736 49.1745 175.312 49.5C174.922 49.8255 174.727 50.265 174.727 50.8184C174.727 51.6647 175.036 52.4785 175.654 53.2598C176.305 54.041 177.152 54.7409 178.193 55.3594C179.268 55.9453 180.488 56.4173 181.855 56.7754C183.255 57.1335 184.688 57.3125 186.152 57.3125C187.552 57.3125 188.984 57.1823 190.449 56.9219C191.947 56.6289 193.411 56.222 194.844 55.7012C196.309 55.1803 197.725 54.5618 199.092 53.8457C200.459 53.097 201.745 52.2507 202.949 51.3066ZM192.061 38.709C192.549 38.6113 192.972 38.3835 193.33 38.0254C193.688 37.6348 193.867 37.1628 193.867 36.6094C193.867 36.1211 193.688 35.6654 193.33 35.2422C192.972 34.819 192.484 34.4447 191.865 34.1191C191.247 33.7611 190.531 33.4844 189.717 33.2891C188.903 33.0938 188.04 32.9961 187.129 32.9961C185.794 32.9961 184.427 33.1914 183.027 33.582C181.628 33.9727 180.358 34.4935 179.219 35.1445C178.079 35.763 177.152 36.4629 176.436 37.2441C175.719 37.9928 175.361 38.7415 175.361 39.4902C175.361 40.2389 175.817 40.6133 176.729 40.6133C177.282 40.6133 178.177 40.5482 179.414 40.418C180.651 40.2878 182.018 40.1413 183.516 39.9785C185.013 39.7832 186.527 39.5716 188.057 39.3438C189.587 39.1159 190.921 38.9043 192.061 38.709ZM217.598 5.60352C217.598 3.87826 218.086 2.67383 219.062 1.99023C220.039 1.27409 221.65 0.916016 223.896 0.916016C224.71 0.916016 225.394 0.997396 225.947 1.16016C226.533 1.29036 227.021 1.55078 227.412 1.94141C227.835 2.33203 228.161 2.85286 228.389 3.50391C228.649 4.1224 228.861 4.91992 229.023 5.89648C229.414 8.92383 229.837 12.0488 230.293 15.2715C230.781 18.4941 231.286 21.7331 231.807 24.9883C232.002 26.4531 232.767 27.1855 234.102 27.1855C234.46 27.1855 235.046 27.153 235.859 27.0879C236.706 26.9902 237.699 26.8926 238.838 26.7949C239.977 26.6647 241.198 26.5345 242.5 26.4043C243.835 26.2741 245.153 26.1602 246.455 26.0625C247.79 25.9323 249.043 25.8346 250.215 25.7695C251.419 25.6719 252.477 25.623 253.389 25.623C254.105 25.623 254.674 25.7695 255.098 26.0625C255.521 26.3229 255.846 26.681 256.074 27.1367C256.335 27.5599 256.497 28.0482 256.562 28.6016C256.66 29.1224 256.709 29.6595 256.709 30.2129C256.709 30.7012 256.611 31.2057 256.416 31.7266C256.253 32.2474 256.009 32.7194 255.684 33.1426C255.391 33.5332 255.016 33.8587 254.561 34.1191C254.105 34.3796 253.584 34.5098 252.998 34.5098C250.166 34.5098 247.301 34.6074 244.404 34.8027C241.54 34.9655 238.675 35.1934 235.811 35.4863C234.346 35.6816 233.613 36.4141 233.613 37.6836C233.613 37.7812 233.63 37.9115 233.662 38.0742C233.695 38.2044 233.711 38.3184 233.711 38.416C234.102 41.248 234.46 43.901 234.785 46.375C235.143 48.849 235.436 51.0625 235.664 53.0156C235.924 54.9362 236.12 56.5475 236.25 57.8496C236.413 59.1191 236.494 59.9655 236.494 60.3887C236.494 61.5605 236.38 62.5371 236.152 63.3184C235.924 64.1322 235.55 64.7832 235.029 65.2715C234.508 65.7923 233.809 66.1504 232.93 66.3457C232.083 66.5736 231.009 66.6875 229.707 66.6875C228.47 66.6875 227.559 66.3945 226.973 65.8086C226.387 65.2227 226.061 64.3275 225.996 63.123C225.801 59.2819 225.492 55.4245 225.068 51.5508C224.645 47.6445 224.157 43.7546 223.604 39.8809C223.311 38.4811 222.578 37.7812 221.406 37.7812C221.309 37.7812 221.195 37.7975 221.064 37.8301C220.934 37.8626 220.82 37.8789 220.723 37.8789C218.704 38.3346 216.8 38.7904 215.01 39.2461C213.219 39.7018 211.543 40.1901 209.98 40.7109C209.102 41.0039 208.32 41.2155 207.637 41.3457C206.953 41.4434 206.335 41.4922 205.781 41.4922C205.033 41.4922 204.479 41.1667 204.121 40.5156C203.763 39.832 203.584 38.9857 203.584 37.9766C203.584 37.6185 203.617 37.2116 203.682 36.7559C203.747 36.2676 203.877 35.7956 204.072 35.3398C204.235 34.8516 204.495 34.4121 204.854 34.0215C205.179 33.5983 205.635 33.2565 206.221 32.9961C207.588 32.4427 209.411 31.873 211.689 31.2871C213.968 30.6686 216.54 30.099 219.404 29.5781C220.055 29.4154 220.56 29.1549 220.918 28.7969C221.309 28.4062 221.504 27.8366 221.504 27.0879C221.504 26.9251 221.504 26.7624 221.504 26.5996C221.504 26.4043 221.471 26.209 221.406 26.0137C220.885 23.0189 220.381 20.3008 219.893 17.8594C219.437 15.3854 219.03 13.2695 218.672 11.5117C218.346 9.75391 218.086 8.37044 217.891 7.36133C217.695 6.35221 217.598 5.76628 217.598 5.60352Z" fill="white"/>
</svg>
